HIERARCHY
ROOT Hips
{
  OFFSET -2.80573 93.4123 36.3667
  CHANNELS 6 Xposition Yposition Zposition Zrotation Xrotation Yrotation
  JOINT ToSpine
  {
    OFFSET -2.69724 7.43032 -0.144315
    CHANNELS 3 Zrotation Xrotation Yrotation
    JOINT Spine
    {
      OFFSET -0.0310711 10.7595 1.96963
      CHANNELS 3 Zrotation Xrotation Yrotation
      JOINT Spine1
      {
        OFFSET 13.1342 3.43533 0.764692
        CHANNELS 3 Zrotation Xrotation Yrotation
        JOINT Neck
        {
          OFFSET 29.8703 7.82586 -0.130764
          CHANNELS 3 Zrotation Xrotation Yrotation
          JOINT Head
          {
            OFFSET 9.52751 0.295786 -0.907742
            CHANNELS 3 Zrotation Xrotation Yrotation
            End Site
            {
              OFFSET 16.4037 0.713936 2.7358
            }
          }
        }
        JOINT LeftShoulder
        {
          OFFSET 27.5574 4.95586 2.47156
          CHANNELS 3 Zrotation Xrotation Yrotation
          JOINT LeftArm
          {
            OFFSET 1.20734 -0.998971 20.1238
            CHANNELS 3 Zrotation Xrotation Yrotation
            JOINT LeftForeArm
            {
              OFFSET 26.8049 -0.0536703 -0.155908
              CHANNELS 3 Zrotation Xrotation Yrotation
              JOINT LeftHand
              {
                OFFSET 26.6817 0 0.320147
                CHANNELS 3 Zrotation Xrotation Yrotation
                End Site
                {
                  OFFSET 18.6119 0 0.382219
                }
              }
            }
          }
        }
        JOINT RightShoulder
        {
          OFFSET 27.5927 4.71444 -2.65209
          CHANNELS 3 Zrotation Xrotation Yrotation
          JOINT RightArm
          {
            OFFSET 2.83739 -1.17114 -18.7564
            CHANNELS 3 Zrotation Xrotation Yrotation
            JOINT RightForeArm
            {
              OFFSET 28.839 -0.0548439 1.22491
              CHANNELS 3 Zrotation Xrotation Yrotation
              JOINT RightHand
              {
                OFFSET 26.5114 0 -0.101894
                CHANNELS 3 Zrotation Xrotation Yrotation
                End Site
                {
                  OFFSET 18.2168 0 0
                }
              }
            }
          }
        }
      }
    }
  }
  JOINT LeftUpLeg
  {
    OFFSET -4.76168 -1.9167 -10.2353
    CHANNELS 3 Zrotation Xrotation Yrotation
    JOINT LeftLeg
    {
      OFFSET 2.55951 -42.0585 -8.02213
      CHANNELS 3 Zrotation Xrotation Yrotation
      JOINT LeftFoot
      {
        OFFSET 3.16357 -42.5282 -3.95426
        CHANNELS 3 Zrotation Xrotation Yrotation
        JOINT LeftToeBase
        {
          OFFSET 0.346054 -6.02161 12.8035
          CHANNELS 3 Zrotation Xrotation Yrotation
          End Site
          {
            OFFSET 0.134235 -1.35082 5.13018
          }
        }
      }
    }
  }
  JOINT RightUpLeg
  {
    OFFSET -4.94151 -1.41743 10.6446
    CHANNELS 3 Zrotation Xrotation Yrotation
    JOINT RightLeg
    {
      OFFSET -2.56294 -42.0364 -7.94377
      CHANNELS 3 Zrotation Xrotation Yrotation
      JOINT RightFoot
      {
        OFFSET -3.0952 -42.555 -4.02241
        CHANNELS 3 Zrotation Xrotation Yrotation
        JOINT RightToeBase
        {
          OFFSET -0.0828122 -6.13587 12.8035
          CHANNELS 3 Zrotation Xrotation Yrotation
          End Site
          {
            OFFSET -0.131328 -1.35082 5.13018
          }
        }
      }
    }
  }
}
MOTION
Frames:	13
Frame Time:	0.0333333
-2.44677 93.3115 37.5479 69.4857 -45.5977 -13.4363 -70.1915 0 88.8779 78.0761 72.1661 7.82205 3.98416 21.6336 2.14382 -127.84 34.505 155.938 -164.617 78.0743 -167.245 0.474133 -14.4779 -23.1798 -55.5649 33.4869 -135.556 23.1579 -9.35217 -110.003 0.420957 0.000576052 0.35866 -1.88789 7.40218 39.9163 -126.53 -20.0313 96.7864 18.5982 -2.38402 82.7764 1.4714 0.0614698 3.44484 -51.1522 8.76318 104.303 -2.68958 46.5537 -1.87674 2.5408 -16.8443 -1.38778 4.10142 -11.527 16.1444 -41.8085 -10.1772 79.1662 1.6543 32.4689 1.66649 -3.8443 0.645797 0.616819 0.842648 -4.30643 -2.65115 
-2.50747 93.3745 37.4773 69.4219 -45.5832 -13.5018 -70.1915 0 88.8779 78.1294 72.1663 7.82143 3.94753 21.6213 2.04141 -128.226 34.5206 156.282 -164.367 77.9623 -167.606 0.479673 -14.4388 -23.1717 -55.7034 32.94 -136.287 22.3981 -9.16203 -110.319 0.420957 0.000576052 0.35866 -1.82595 7.30649 39.4406 -126.571 -20.5381 96.6273 18.4632 -2.35577 82.8011 1.45379 0.0609814 3.4259 -51.105 8.69346 104.154 -2.57568 46.4194 -1.18145 2.24839 -16.3737 -1.36838 4.70644 -12.212 14.233 -41.8425 -10.1742 79.1914 1.63189 32.2082 1.52302 -3.40959 0.572915 0.56111 0.743823 -3.82213 -2.26477 
-2.56704 93.3786 37.3532 69.2912 -45.6676 -13.6473 -70.1915 0 88.8779 78.1625 72.129 7.74927 3.72051 21.5516 2.05258 -128.364 34.1824 157.188 -166.815 77.4599 -164.662 0.465814 -14.4842 -23.371 -55.6925 33.4729 -135.988 22.41 -9.01188 -109.997 0.420957 0.000576052 0.35866 -1.88504 7.49875 39.5693 -126.58 -20.7445 96.722 18.1273 -2.55379 82.0706 1.43131 0.062722 3.43345 -51.0185 8.70609 104.52 -2.66158 46.4051 -1.83422 0.904344 -17.8864 -1.49452 3.43666 -10.5288 16.0867 -41.8291 -10.0315 79.4355 1.56925 31.8209 1.15789 -3.82738 0.910679 0.602269 0.695477 -4.18945 -1.57806 
-2.64899 93.4949 37.2462 69.3563 -45.5726 -13.6505 -70.1915 0 88.8779 79.0202 72.0453 6.76954 3.24142 21.4529 2.03621 -127.817 33.9376 157.604 -168.37 77.2062 -162.686 0.43911 -14.583 -23.7033 -55.9064 33.9858 -135.445 22.7268 -8.74259 -109.152 0.420957 0.000576052 0.35866 -1.98078 7.803 39.7398 -126.629 -20.8402 96.5787 18.3479 -2.91579 81.1085 1.53373 0.0709263 3.67239 -50.9004 8.59409 104.384 -2.70864 46.4113 -2.18273 1.01106 -18.0722 -1.51008 2.8253 -9.75466 16.9904 -42.1236 -9.99903 79.5386 1.53182 31.1497 1.02644 -3.65846 1.13168 0.569665 0.677947 -3.99415 -1.62002 
-2.68694 93.5288 37.089 69.3742 -45.4548 -13.6668 -70.1915 0 88.8779 78.9908 71.947 6.7611 3.30242 21.396 1.88683 -127.788 33.6845 157.556 -167.975 76.9827 -163.075 0.464278 -14.4551 -23.5118 -56.1347 33.9826 -135.229 22.8749 -8.29268 -108.092 0.420957 0.000576052 0.35866 -2.0169 7.89316 39.886 -126.282 -20.5856 96.8595 18.1774 -3.08499 80.5263 1.43791 0.0630718 3.42221 -50.8186 8.58987 104.588 -2.73861 46.3697 -2.45828 1.37228 -17.8623 -1.48291 2.87992 -9.81289 16.835 -42.2185 -10.0195 79.7092 1.5203 30.8051 1.17456 -3.36189 1.18951 0.525553 0.748797 -3.65206 -2.42617 
-2.72109 93.4742 36.9138 69.1925 -45.502 -13.7808 -70.1915 0 88.8779 78.8079 71.9728 7.18826 3.49824 21.4365 1.67814 -128.38 33.8554 157.898 -169.011 77.003 -162.311 0.438852 -14.5848 -23.7034 -56.1882 34.1202 -134.925 23.0768 -8.32036 -107.98 0.420957 0.000576052 0.35866 -1.99494 7.81567 39.9023 -126.125 -20.5357 97.0959 17.7188 -2.97983 80.595 1.35104 0.0574149 3.27339 -50.6176 8.69722 104.792 -2.69042 46.4149 -2.0408 1.33806 -18.2198 -1.50954 2.68852 -9.32573 15.6813 -42.0976 -10.1408 79.4695 1.61098 30.6542 1.24643 -4.03264 1.52488 0.604633 0.760505 -4.32306 -1.98321 
-2.75901 93.5034 36.7637 69.109 -45.5943 -13.9734 -70.1915 0 88.8779 79.5013 72.0249 6.49779 3.2915 21.4593 1.62698 -128.811 33.9216 158.249 -169.896 76.9402 -161.568 0.47619 -14.3776 -23.4777 -55.7924 34.3138 -135.205 22.8455 -8.34836 -108.233 0.420957 0.000576052 0.35866 -2.03664 7.89475 40.1607 -125.976 -20.3999 97.0571 17.4807 -2.76027 81.1347 1.33899 0.0556871 3.30125 -50.5454 8.57674 104.942 -2.71957 46.4084 -2.26856 1.37472 -18.151 -1.50337 2.74178 -9.5048 16.245 -42.0332 -10.3094 79.4263 1.64375 30.5235 1.40859 -4.33002 1.70254 0.640686 0.715905 -4.53723 -1.44848 
-2.79535 93.4992 36.6603 69.2188 -45.7687 -13.9815 -70.1915 0 88.8779 80.2814 72.1368 5.52306 3.11344 21.4222 1.88711 -129.181 33.9714 158.465 -169.861 76.9033 -161.845 0.525538 -14.0781 -23.2385 -55.3577 34.304 -135.668 21.9366 -8.14861 -108.6 0.420957 0.000576052 0.35866 -2.01527 7.9521 39.7194 -125.948 -20.8577 96.6604 17.2868 -2.57171 81.6166 1.34183 0.054962 3.36431 -50.6359 8.5809 105.133 -2.74388 46.4365 -2.42188 1.27603 -18.1302 -1.50516 2.78304 -9.61616 16.5377 -42.0854 -10.2461 79.6155 1.5855 30.4454 1.44616 -4.1936 1.74621 0.619127 0.70303 -4.33867 -1.51475 
-2.77547 93.46 36.5644 69.237 -45.8775 -13.9679 -70.1915 0 88.8779 80.7066 72.2524 4.97569 2.83711 21.4505 2.25052 -128.967 33.9764 158.538 -170.055 76.9151 -161.769 0.528638 -14.0263 -23.3488 -55.2081 34.2148 -135.826 21.7662 -8.1501 -108.756 0.420957 0.000576052 0.35866 -1.97468 7.87465 39.4585 -125.918 -21.1055 96.6197 17.3932 -2.55171 81.732 1.33046 0.0545849 3.30252 -50.6277 8.67516 105.317 -2.76351 46.5334 -2.46275 1.51517 -18.0701 -1.49313 2.7277 -9.53738 16.5624 -42.0647 -10.1954 79.7177 1.55641 30.3999 1.35971 -4.08138 1.8695 0.597888 0.660487 -4.39522 -1.12635 
-2.80394 93.4436 36.5028 69.2982 -45.7284 -13.8655 -70.1915 0 88.8779 80.3809 72.2206 5.28156 2.87385 21.4649 2.2533 -128.597 33.7645 158.224 -170.171 76.8229 -161.865 0.503117 -14.2358 -23.2725 -55.3779 34.1535 -135.875 21.8997 -8.10544 -108.539 0.420957 0.000576052 0.35866 -1.95209 7.66724 39.8672 -125.75 -20.7166 97.1283 17.1133 -2.6136 81.4125 1.26897 0.0545048 3.17371 -50.4344 8.56259 105.033 -2.76597 46.7299 -2.26122 1.45534 -18.2263 -1.50601 2.6478 -9.38675 16.3829 -42.0818 -10.3863 79.42 1.69569 30.3476 1.812 -4.0874 1.88349 0.598471 0.770657 -4.44682 -1.9771 
-2.78337 93.3965 36.4237 69.3975 -45.6768 -13.7239 -70.1915 0 88.8779 79.5742 72.1007 6.17852 3.22001 21.375 2.18152 -128.319 33.8291 158.474 -171.492 76.8478 -160.446 0.481499 -14.3489 -23.4412 -55.7539 34.0592 -135.637 22.0853 -8.04531 -108.246 0.420957 0.000576052 0.35866 -2.0212 7.87981 40.0285 -125.723 -20.5541 97.458 17.2721 -2.75463 81.0663 1.26518 0.0547788 3.11966 -50.3542 8.38412 104.66 -2.72969 46.8105 -1.89469 1.61229 -18.188 -1.49813 2.76201 -9.54524 16.3014 -42.1394 -10.3659 79.4757 1.66705 30.3049 1.64827 -3.47999 1.60404 0.521786 0.709455 -3.73422 -2.05982 
-2.79494 93.4241 36.383 69.489 -45.763 -13.6765 -70.1915 0 88.8779 79.2744 72.2 6.40889 3.39875 21.4672 2.27336 -128.384 33.966 158.314 -170.64 77.0123 -161.314 0.458629 -14.4969 -23.5103 -55.8749 33.973 -135.589 22.0476 -7.97104 -108.118 0.420957 0.000576052 0.35866 -1.98367 7.74591 40.0048 -125.78 -20.5885 97.4977 17.4231 -2.79539 81.0208 1.27953 0.0553047 3.12811 -50.4139 8.26692 104.507 -2.73119 46.8301 -1.8789 1.39352 -18.192 -1.50564 2.74695 -9.58939 16.703 -42.2359 -10.2542 79.6495 1.60157 30.1636 1.47451 -3.62315 1.77698 0.535263 0.693529 -3.86923 -1.82618 
-2.81062 93.3955 36.3533 69.4871 -45.8911 -13.6876 -70.1915 0 88.8779 79.5444 72.2282 6.2803 3.394 21.5546 2.12948 -128.339 33.973 158.127 -169.159 77.07 -162.564 0.464403 -14.4856 -23.4021 -55.8016 34.0547 -135.466 22.0201 -8.03986 -108.292 0.420957 0.000576052 0.35866 -1.94247 7.61346 39.9181 -125.643 -20.7775 97.5519 17.1002 -2.68148 81.1994 1.26435 0.0559721 3.16059 -50.4044 8.27148 104.503 -2.70865 46.9062 -1.62993 1.34328 -18.2321 -1.51015 2.84891 -9.68869 16.3787 -42.2078 -10.1799 79.6853 1.63156 30.1818 1.8848 -3.96549 1.99687 0.575369 0.825592 -4.26102 -2.57078 
